<?xml version="1.0" encoding="utf-8"?>
<!-- Generator: Adobe Illustrator 24.2.3, SVG Export Plug-In . SVG Version: 6.00 Build 0)  -->
<svg version="1.1"
	 id="svg8" xmlns:cc="http://creativecommons.org/ns#" xmlns:dc="http://purl.org/dc/elements/1.1/" xmlns:inkscape="http://www.inkscape.org/namespaces/inkscape" xmlns:rdf="http://www.w3.org/1999/02/22-rdf-syntax-ns#" xmlns:sodipodi="http://sodipodi.sourceforge.net/DTD/sodipodi-0.dtd" xmlns:svg="http://www.w3.org/2000/svg"
	 xmlns="http://www.w3.org/2000/svg" xmlns:xlink="http://www.w3.org/1999/xlink" x="0px" y="0px" viewBox="0 0 24 24"
	 style="enable-background:new 0 0 24 24;" xml:space="preserve">
<sodipodi:namedview  bordercolor="#666666" borderopacity="1.0" guidecolor="#af0000" guidehicolor="#ff4b4b" guidehiopacity="0.49803922" guideopacity="0.49803922" id="base" inkscape:current-layer="layer1" inkscape:cx="5.8652195" inkscape:cy="16.605566" inkscape:document-units="px" inkscape:pageopacity="0.0" inkscape:pageshadow="2" inkscape:snap-global="false" inkscape:window-height="658" inkscape:window-maximized="1" inkscape:window-width="1280" inkscape:window-x="-8" inkscape:window-y="-8" inkscape:zoom="7.9999995" pagecolor="#ffffff" showgrid="false" showguides="true" units="px">
	
		<inkscape:grid  dotted="false" empspacing="1" enabled="true" id="grid815" originx="0" originy="0" snapvisiblegridlinesonly="true" spacingx="0" spacingy="0" type="xygrid" visible="true">
		</inkscape:grid>
</sodipodi:namedview>
<g id="layer1" transform="translate(0,-290.64999)" inkscape:groupmode="layer" inkscape:label="Guides">
	<path id="path1278" d="M9.6,290.8c-0.6,0-1.2,0.2-1.7,0.6c-0.5,0.4-0.8,1-0.8,1.8c0,0,0,0.1,0,0.1H1c-0.5,0-0.9,0.3-0.9,0.9v3
		l9.2,3.5c0.4-0.8,1.2-1.3,2.1-1.3c0,0,0,0,0,0h1.1c0,0,0,0,0.1,0c0.9,0,1.7,0.6,2.1,1.3l9.2-3.7v-2.8c0-0.5-0.4-0.9-0.9-0.9h-6.1
		c0,0,0-0.1,0-0.1c0-0.7-0.4-1.4-0.8-1.8c-0.5-0.4-1-0.6-1.7-0.6H9.6z M9.6,292.6h4.8c0.3,0,0.6,0.1,0.8,0.3
		c0.2,0.1,0.2,0.2,0.2,0.3c0,0,0,0.1,0,0.1c0.5,0,0.7,0,1.3,0c-0.1,0.3-0.4,0.5-0.6,0.6c-0.5,0.3-1,0.5-1.7,0.5H9.6
		c-0.6,0-1.2-0.1-1.7-0.5c-0.3-0.2-0.5-0.4-0.6-0.6c0.8,0,0.8,0,1.3,0c0,0,0-0.1,0-0.1c0-0.1,0-0.2,0.2-0.3
		C9,292.7,9.3,292.6,9.6,292.6z M23.9,298.5l-9,3.5v0.8c0,1.3-1.1,2.5-2.4,2.5h-1.1c-1.3,0-2.4-1.1-2.4-2.5v-0.8l-8.9-3.4v11.6
		c0,0.5,0.4,1,0.9,1H23c0.5,0,0.9-0.5,0.9-1V298.5z M11.4,300.7L11.4,300.7c-0.1,0-0.2,0-0.2,0c0,0-0.1,0-0.1,0
		c-0.3,0.1-0.5,0.4-0.6,0.8c0,0,0,0.1,0,0.1v1.1c0,0.6,0.4,1,0.9,1h1.1c0.6,0,0.9-0.4,0.9-1v-1.1c0,0,0-0.1,0-0.1
		c0-0.4-0.2-0.7-0.6-0.8c-0.1,0-0.2-0.1-0.4-0.1H11.4z"/>
</g>
</svg>
